<svg width="40" height="40" viewBox="0 0 40 40" fill="none" xmlns="http://www.w3.org/2000/svg">
<g clip-path="url(#clip0_209_260)">
<path d="M20 23.333C22.7614 23.333 25 21.0944 25 18.333C25 15.5716 22.7614 13.333 20 13.333C17.2386 13.333 15 15.5716 15 18.333C15 21.0944 17.2386 23.333 20 23.333Z" stroke="#63FF00" stroke-width="3" stroke-linecap="round" stroke-linejoin="round"/>
<path d="M29.4284 27.7612L22.3567 34.8328C21.7317 35.4572 20.8843 35.808 20.0009 35.808C19.1174 35.808 18.2701 35.4572 17.645 34.8328L10.5717 27.7612C8.70706 25.8965 7.43725 23.5207 6.92284 20.9343C6.40843 18.3479 6.67251 15.667 7.6817 13.2307C8.69089 10.7944 10.3999 8.71208 12.5925 7.24702C14.7851 5.78197 17.363 5 20 5C22.6371 5 25.2149 5.78197 27.4076 7.24702C29.6002 8.71208 31.3092 10.7944 32.3184 13.2307C33.3275 15.667 33.5916 18.3479 33.0772 20.9343C32.5628 23.5207 31.293 25.8965 29.4284 27.7612V27.7612Z" stroke="#63FF00" stroke-width="3" stroke-linecap="round" stroke-linejoin="round"/>
</g>
<defs>
<clipPath id="clip0_209_260">
<rect width="40" height="40" fill="white"/>
</clipPath>
</defs>
</svg>
